<svg height="512pt" viewBox="0 -34 512 512" width="512pt" xmlns="http://www.w3.org/2000/svg"><path d="m310.152344 393.847656c0 27.144532 22.085937 49.230469 49.230468 49.230469l9.855469-49.230469-9.855469-49.230468c-27.144531 0-49.230468 22.082031-49.230468 49.230468zm0 0" fill="#0d70b2"/><path d="m359.382812 344.617188v98.460937c27.148438 0 49.234376-22.085937 49.234376-49.230469 0-27.148437-22.085938-49.230468-49.234376-49.230468zm0 0" fill="#095c92"/><path d="m162.460938 393.847656c0 27.144532 22.085937 49.230469 49.230468 49.230469l9.855469-49.230469-9.855469-49.230468c-27.144531 0-49.230468 22.082031-49.230468 49.230468zm0 0" fill="#0d70b2"/><path d="m211.691406 344.617188v98.460937c27.148438 0 49.230469-22.085937 49.230469-49.230469 0-27.148437-22.082031-49.230468-49.230469-49.230468zm0 0" fill="#095c92"/><path d="m178.824219 295.382812c-6.363281 0-11.992188-4.058593-14.007813-10.09375l-12.882812-38.660156c-.03125-.097656-.0625-.195312-.09375-.292968l-72.019532-216.050782c-6.046874-18.113281-22.9375-30.285156-42.03125-30.285156h-23.019531c-8.15625 0-14.769531 6.613281-14.769531 14.769531s6.613281 14.769531 14.769531 14.769531h23.019531c6.363282 0 11.996094 4.058594 14.007813 10.089844l71.945313 215.824219c.027343.097656.058593.195313.09375.292969l12.960937 38.890625c6.046875 18.113281 22.9375 30.285156 42.03125 30.285156h106.710937l9.851563-14.769531-9.851563-14.769532zm0 0" fill="#4db6ac"/><path d="m413.539062 295.382812h-128v29.539063h128c8.15625 0 14.769532-6.613281 14.769532-14.769531s-6.613282-14.769532-14.769532-14.769532zm0 0" fill="#00897b"/><path d="m88.617188 88.617188c-4.75 0-9.207032 2.28125-11.984376 6.132812-2.773437 3.847656-3.527343 8.800781-2.027343 13.304688l49.136719 147.402343c1.910156 6.164063 7.621093 10.390625 14.105468 10.390625h147.691406l9.851563-88.617187-9.851563-88.613281zm0 0" fill="#80deea"/><path d="m481.621094 94.464844c-2.792969-3.683594-7.148438-5.847656-11.773438-5.847656h-184.308594v177.230468h120.386719c19.761719 0 37.304688-13.289062 42.65625-32.316406l35.484375-126.148438c1.25-4.449218.34375-9.230468-2.445312-12.917968zm0 0" fill="#4dd0e1"/><path d="m206.769531 147.691406c-8.15625 0-14.769531 6.613282-14.769531 14.769532v29.539062c0 8.15625 6.613281 14.769531 14.769531 14.769531s14.769531-6.613281 14.769531-14.769531v-29.539062c0-8.15625-6.613281-14.769532-14.769531-14.769532zm0 0" fill="#e3f2fd"/><path d="m270.769531 162.460938v29.539062c0 8.15625 6.613281 14.769531 14.769531 14.769531l9.851563-29.539062-9.851563-29.539063c-8.15625 0-14.769531 6.613282-14.769531 14.769532zm0 0" fill="#e3f2fd"/><path d="m285.539062 147.691406v59.078125c8.15625 0 14.769532-6.613281 14.769532-14.769531v-29.539062c0-8.15625-6.613282-14.769532-14.769532-14.769532zm0 0" fill="#bbdefb"/><path d="m364.308594 147.691406c-8.15625 0-14.769532 6.613282-14.769532 14.769532v29.539062c0 8.15625 6.613282 14.769531 14.769532 14.769531s14.769531-6.613281 14.769531-14.769531v-29.539062c0-8.15625-6.613281-14.769532-14.769531-14.769532zm0 0" fill="#bbdefb"/><path d="m68.921875 29.539062c-4.746094 0-9.203125 2.28125-11.980469 6.132813-2.773437 3.851563-3.53125 8.800781-2.03125 13.304687l19.699219 59.078126c2.007813 6.03125 7.652344 10.097656 14.007813 10.097656h196.921874l9.851563-44.304688-9.851563-44.308594zm0 0" fill="#0d70b2"/><path d="m467.691406 29.539062h-182.152344v88.613282h182.152344c24.433594 0 44.308594-19.875 44.308594-44.304688 0-24.433594-19.875-44.308594-44.308594-44.308594zm0 0" fill="#095c92"/></svg>